<svg xmlns="http://www.w3.org/2000/svg" xmlns:xlink="http://www.w3.org/1999/xlink" viewBox="0 0 650 290"><defs><path id="A" d="M0 0h650v290H0z"/></defs><clipPath id="B"><use xlink:href="#A"/></clipPath><path d="M643 278c-2.7 0-5 1.8-5.7 4.2L550 252.5v-.5a6.02 6.02 0 0 0-6-6c-1.6 0-3.1.7-4.2 1.7L451.9 198c.1-.3.1-.6.1-1a6.02 6.02 0 0 0-6-6 5.99 5.99 0 0 0-5.3 3.2L249 168.7c-.1-3.2-2.8-5.7-6-5.7-2 0-3.7.9-4.8 2.4L23.4 42.7c.4-.8.6-1.7.6-2.7a6.02 6.02 0 0 0-6-6 6.28 6.28 0 0 0-1.9.3l-35-74.5-.2-1.4-.5.1-.5-.1L-25.4 4h-.6a6.02 6.02 0 0 0-6 6 6.02 6.02 0 0 0 6 6c1 0 1.9-.2 2.8-.7L-7.5 48l24.8 177c-3 .3-5.4 2.9-5.4 6 0 1.1.3 2.2.9 3.1l-65.7 62 .3.4.1.5 114.2-19c1 1.8 3 3 5.2 3 1.9 0 3.5-.9 4.6-2.2l76 32.3c1.1 1.1 2.6 1.9 4.3 1.9l2.3 1 .2-.5.5.1.2-.7 146.1-21c.8 2.4 3 4.1 5.7 4.1 2.3 0 4.4-1.4 5.4-3.3l145 49.3.2-.5.1.5 180-55.2a5.99 5.99 0 0 0 5.3 3.2 6.02 6.02 0 0 0 6-6c0-3.3-2.5-6-5.8-6zm-5.9 5.2v.3l-113.5-8.8 17.3-17.7c.9.6 2 .9 3.2.9 2.8 0 5.1-1.9 5.8-4.5l87.2 29.8zM440 316c-.4 0-.8 0-1.3.1l-27.2-35.6 70.6-7.1c.5 1.8 1.8 3.3 3.5 4l-28.3 63-12.1-15.8c.4-.8.7-1.8.7-2.7.1-3.2-2.6-5.9-5.9-5.9zm-127-26.5c0-.3-.1-.6-.1-.9l71.3-33.1c1.1 1.5 2.9 2.5 4.8 2.5 1.2 0 2.4-.4 3.3-1l17.4 22.8-96.7 9.7zm-115.6-5.9l19-13.1 84.6 19v.1l-103.6-6zM237 169.4a6.62 6.62 0 0 0 1.2 3.3l-27.8 24.7-77.6-21c.1-.2.1-.5.1-.7l104.1-6.3zm203.1 28.5c.1.9.4 1.7.9 2.4l-47.6 47.6c-1.1-1.2-2.7-1.9-4.4-1.9-2.5 0-4.7 1.6-5.6 3.8l-54-18.9 110.7-33zm42 72.8l-87.2-17.6c.1-.4.1-.7.1-1.1 0-1.2-.4-2.4-1-3.3l47.6-47.6c1.1 1.2 2.7 1.9 4.4 1.9 1.3 0 2.5-.4 3.4-1.1l35.4 65c-1.3.8-2.3 2.2-2.7 3.8zm-99-19.9c-.1.4-.1.8-.1 1.2 0 1 .2 1.9.6 2.7l-71.1 33a5.96 5.96 0 0 0-5.5-3.6c-2.4 0-4.5 1.4-5.5 3.5l-64.7-26.4c.1-.4.1-.8.1-1.2 0-.5-.1-1.1-.2-1.6l91-27.1 55.4 19.5zM50.6 159.1l70.4 15.5v.4c0 2.8 1.9 5.1 4.5 5.8l-17 59.4c-.5-.1-1-.2-1.5-.2-.8 0-1.6.2-2.4.5l-55.3-79.4c.6-.5 1-1.2 1.3-2zM307 225.5l-124 .9c-.1-.9-.4-1.8-.9-2.5l28.6-25.4 96.4 26v.5c-.1.2-.1.3-.1.5zm-81.7 32.8l-53.8-6.1 5.1-19.2h.4c2.1 0 4-1.1 5.1-2.8l43.9 26.6c-.3.4-.6.9-.7 1.5zM127 181c1.4 0 2.8-.5 3.8-1.4l41.7 43.4c-.9 1.1-1.5 2.4-1.5 4 0 .6.1 1.1.2 1.6l-58.7 15.1c-.6-1.4-1.7-2.5-3.1-3.2l17-59.6c.2.1.4.1.6.1zm-14 64.6c0-.3-.1-.7-.1-1l58.7-15.1c.8 1.6 2.2 2.8 4 3.3l-5.2 19.3-57.4-6.5zm68.5-22.5c-1.1-1.3-2.7-2.1-4.5-2.1-1.4 0-2.7.5-3.8 1.3l-41.7-43.4c.4-.5.8-1 1-1.6l77 20.8-28 25zm-11.4 30l-1.5 5.7-52-11.8 53.5 6.1zm1 .1l53.9 6.1v.7c0 1 .3 2 .7 2.9l-9.6 6.6-46.5-10.5 1.5-5.8zm55.2 10.5c1.1 1.4 2.8 2.3 4.7 2.3 2.6 0 4.7-1.6 5.6-3.9l64.6 26.3v.1l-83.7-18.8 8.8-6zm10.2-6.2c-.9-2.1-3-3.5-5.5-3.5-1.8 0-3.3.8-4.4 2l-44-26.7c.2-.6.4-1.3.4-1.9l124.2-.9c.7 2.6 3 4.5 5.8 4.5 2.2 0 4.1-1.2 5.2-3l8 2.8-89.7 26.7zm70.7-34l-95.6-25.8 27.4-24.3c1.1 1 2.5 1.6 4.1 1.6 1.9 0 3.7-.9 4.7-2.3l60 49.5a3.79 3.79 0 0 0-.6 1.3zm-186-49.9l-70.3-15.4c.1-.4.1-.8.1-1.2 0-1.8-.8-3.4-2.1-4.5L80 108.3c.9.5 1.9.8 2.9.8 1.2 0 2.3-.4 3.3-1l37.4 62c-1.2.8-2.1 2-2.4 3.5zm-42-65.9l-31.1 44.2c-.9-.6-2-.9-3.1-.9h-.3L20.2 45.6c.8-.3 1.4-.7 2-1.3l56.6 54.4c-1.1 1.1-1.8 2.6-1.8 4.3 0 1.9.9 3.6 2.2 4.7zM18 46v52.4L-6.5 47.7l-3.7-26.6 22.7 16.4c-.3.8-.5 1.6-.5 2.5a6.02 6.02 0 0 0 6 6zm1-.1h.2l24.5 105.3c-.1 0-.2 0-.2.1L19 100.5V45.9zm23.5 105.6c-2.1.9-3.5 3-3.5 5.5s1.5 4.7 3.7 5.6l-23.2 62.7c-.2 0-.4-.1-.6-.1V102.8l23.6 48.7zm-22 74l23.2-62.7c.4.1.9.1 1.3.1 1.3 0 2.6-.4 3.6-1.2l55.2 79.2c-1.6 1.1-2.7 2.9-2.7 5 0 .3 0 .7.1 1l-47.7 15.2-29.9-28.7a5.42 5.42 0 0 0 .6-2.5c-.2-2.3-1.6-4.4-3.7-5.4zm80.8 22.5c.1.4.3.8.6 1.2l-29.6 23A5.99 5.99 0 0 0 67 269c-1.8 0-3.4.8-4.5 2l-8.3-8 47.1-15zm-28.6 25.1l29.8-23.1c1.1 1.2 2.7 2 4.5 2 1.3 0 2.6-.4 3.6-1.2l19.9 28.9-57.7-3.4c.1-.4.1-.9.1-1.3.1-.7 0-1.3-.2-1.9zm38.6-22.9c.8-.8 1.3-1.8 1.6-2.9l55.5 12.5-5.8 21.8-30.7-1.8-20.6-29.6zm51 32.3l-5.6 20.8c-1.1-1.4-2.8-2.3-4.7-2.3-1.7 0-3.2.7-4.3 1.8l-15.2-22 29.8 1.7zm-4.9 22l5.9-21.9 31.2 1.8-37.3 25.7c.5-.9.9-1.9.9-3.1-.1-.9-.3-1.8-.7-2.5zm6.1-22.9l5.8-21.7 45.7 10.3-19.3 13.3-32.2-1.9zm229.6-25.2c.7-.6 1.2-1.4 1.5-2.3l87.4 17.7v.8l-71.2 7.1-17.7-23.3zm93.5 21.4c.4.1.9.2 1.4.2 2.8 0 5.2-2 5.8-4.6l27.5 2.1-62.2 63.6 27.5-61.3zm7.4-5.4v-.4c0-.3 0-.5-.1-.8l44.8-16.4c.3.6.7 1.1 1.2 1.6l-17.8 18.2-28.1-2.2zm45.1-23.9a6.06 6.06 0 0 0-1.1 3.5c0 .7.1 1.3.3 2l-44.6 16.3a5.91 5.91 0 0 0-5.7-4.3c-.8 0-1.5.2-2.2.4l-35.5-65.2c.6-.6 1.1-1.4 1.4-2.3l87.4 49.6zM440 196.9l-112.2 33.4-9.2-3.2c.2-.7.4-1.4.4-2.1a6.02 6.02 0 0 0-6-6c-1.9 0-3.7.9-4.7 2.3l-60-49.5c.3-.6.6-1.3.7-2.1l191.3 25.4c-.2.6-.3 1.2-.3 1.8zm-202.3-30.7c-.3.7-.6 1.4-.6 2.1l-104 6.3c-.2-3.2-2.8-5.7-6-5.7a5.42 5.42 0 0 0-2.5.6L87 107.4c1.2-1.1 2-2.7 2-4.4a6.02 6.02 0 0 0-6-6c-1.3 0-2.4.4-3.4 1.1L22.9 43.5l214.8 122.7zM15.2 34.7c-.9.5-1.6 1.1-2.2 2l-23.4-16.9-7.9-56.6 33.5 71.5zm-34.7-72.3l7.9 56.5-9-6.5c.3-.8.5-1.6.5-2.5 0-2.8-1.9-5.1-4.4-5.8l5-41.7zm-2.9 52.4c.5-.4 1-.9 1.4-1.4l9.7 7 3.4 24.4-14.5-30zM18 100.7v121.6L-6 51l24 49.7zM18 237c2 0 3.8-1 4.9-2.6l29.3 28.1-102.8 32.8 64-60.4c1.2 1.3 2.8 2.1 4.6 2.1zm-63.7 57.9l98.8-31.5 8.8 8.5c-.6.9-.9 2-.9 3.2 0 .7.1 1.4.4 2l-107.1 17.8zM72.2 278c.1-.2.2-.4.3-.7l58.7 3.4 15.8 22.9c-.7 1-1.1 2.1-1.1 3.4 0 .9.2 1.8.6 2.6L72.2 278zm84.3 33.7l39.5-27.2 105 6.1v.3l-144.5 20.8zM313 290.5l97.4-9.8 27.3 35.7c-2.2.9-3.7 3-3.7 5.6a6.02 6.02 0 0 0 6 6c1.9 0 3.7-.9 4.8-2.4l11.3 14.9-143.4-48.7c.2-.5.2-.9.3-1.3zm146.2 49.9l63.4-64.8 114.4 8.9c0 .5.1.9.3 1.4l-178.1 54.5z" opacity=".35" clip-path="url(#B)" fill="#fff"/></svg>